<svg width="193" height="60" viewBox="0 0 193 60" fill="none" xmlns="http://www.w3.org/2000/svg">
<g clip-path="url(#clip0_1385_1397)">
<g clip-path="url(#clip1_1385_1397)">
<g clip-path="url(#clip2_1385_1397)">
<path d="M176.262 1.50409H16.6327C16.0509 1.50409 15.476 1.50409 14.8957 1.50692C14.4098 1.50976 13.928 1.51799 13.4375 1.52492C12.372 1.53611 11.309 1.61983 10.2578 1.77532C9.208 1.93419 8.19113 2.23374 7.24152 2.66378C6.29308 3.09747 5.42646 3.66102 4.6731 4.33396C3.91579 5.00501 3.28451 5.78065 2.80354 6.63105C2.32124 7.47977 1.98682 8.38925 1.8118 9.32807C1.63514 10.2657 1.54008 11.2142 1.52745 12.1649C1.51273 12.5994 1.51118 13.0353 1.50342 13.4698V46.2228C1.51118 46.6628 1.51273 47.0891 1.52745 47.5292C1.54008 48.48 1.63514 49.4284 1.8118 50.3659C1.98633 51.3054 2.32078 52.2154 2.80354 53.0643C3.28429 53.912 3.91566 54.6845 4.6731 55.3518C5.4236 56.0277 6.29078 56.5917 7.24152 57.022C8.19112 57.4532 9.20789 57.7546 10.2578 57.9159C11.3092 58.0702 12.3721 58.1539 13.4375 58.1664C13.928 58.176 14.4098 58.1815 14.8957 58.1815C15.476 58.1844 16.0509 58.1844 16.6327 58.1844H176.262C176.833 58.1844 177.411 58.1844 177.982 58.1815C178.465 58.1815 178.961 58.176 179.444 58.1664C180.508 58.1546 181.568 58.0709 182.618 57.9159C183.671 57.7535 184.691 57.4522 185.646 57.022C186.596 56.5914 187.462 56.0275 188.213 55.3518C188.968 54.682 189.6 53.91 190.087 53.0643C190.566 52.2147 190.898 51.3048 191.069 50.3659C191.247 49.4283 191.344 48.48 191.364 47.5292C191.37 47.0891 191.37 46.6628 191.37 46.2228C191.383 45.708 191.383 45.1961 191.383 44.6729V15.0169C191.383 14.4979 191.383 13.9832 191.37 13.4698C191.37 13.0353 191.37 12.5994 191.364 12.1649C191.344 11.214 191.247 10.2658 191.069 9.32802C190.897 8.38973 190.566 7.48032 190.087 6.631C189.108 4.92645 187.554 3.53896 185.646 2.66366C184.691 2.23466 183.671 1.9352 182.618 1.77519C181.57 1.61901 180.508 1.53528 179.444 1.52472C178.961 1.51781 178.465 1.5095 177.982 1.50674C177.411 1.50391 176.833 1.50409 176.262 1.50409Z" stroke="white" stroke-width="2.12551"/>
<path d="M48.8824 31.6291C48.918 28.8767 50.3609 26.3343 52.7059 24.8926C51.2198 22.7704 48.8201 21.4729 46.2305 21.3919C43.506 21.1059 40.8647 23.0222 39.4764 23.0222C38.0611 23.0222 35.9236 21.4204 33.6218 21.4677C30.5932 21.5655 27.8383 23.2458 26.3647 25.8934C23.227 31.3261 25.5675 39.3102 28.5733 43.7015C30.0771 45.8519 31.8347 48.2537 34.1343 48.1685C36.3848 48.0753 37.2252 46.7335 39.9418 46.7335C42.633 46.7335 43.4215 48.1685 45.768 48.1144C48.1827 48.0751 49.7041 45.9546 51.1553 43.7839C52.2358 42.2517 53.0671 40.5583 53.6188 38.7665C50.7507 37.5534 48.8858 34.7431 48.8824 31.6291Z" fill="#EFF2F5"/>
<path d="M44.4515 18.5037C45.7682 16.923 46.4169 14.8915 46.2598 12.8403C44.2483 13.0516 42.3902 14.013 41.0557 15.5329C39.738 17.0326 39.0704 18.9945 39.2001 20.9866C41.2386 21.0075 43.1742 20.0924 44.4515 18.5037Z" fill="#EFF2F5"/>
<path fill-rule="evenodd" clip-rule="evenodd" d="M69.6785 39.3501H76.3225L77.9167 44.0613H80.7788L74.4857 26.6309H71.5619L65.2688 44.0613H68.083L69.6785 39.3501ZM75.6311 37.1762H70.3646L72.9623 29.5302H73.0349L75.6311 37.1762Z" fill="#EFF2F5"/>
<path fill-rule="evenodd" clip-rule="evenodd" d="M89.064 44.1933C92.2539 44.1933 94.3675 41.656 94.3675 37.7069C94.3675 33.7688 92.2414 31.2192 89.0161 31.2192C87.3564 31.1656 85.8018 32.0288 84.9697 33.4658H84.9217V31.3521H82.3967V48.2643H85.0053V41.9699H85.0657C85.8623 43.4159 87.4153 44.2796 89.064 44.1933ZM88.3313 33.4426C90.3599 33.4426 91.6896 35.1341 91.6896 37.7069C91.6896 40.3032 90.3599 41.9823 88.3313 41.9823C86.3381 41.9823 84.9977 40.2675 84.9977 37.7069C84.9977 35.1696 86.3381 33.4426 88.3313 33.4426Z" fill="#EFF2F5"/>
<path fill-rule="evenodd" clip-rule="evenodd" d="M103.051 44.1947C106.241 44.1947 108.354 41.6576 108.354 37.7084C108.354 33.7702 106.228 31.2206 103.003 31.2206C101.343 31.1672 99.7885 32.0303 98.9564 33.4673H98.9085V31.3537H96.3835V48.2659H98.9921V41.9714H99.0525C99.8491 43.4175 101.402 44.281 103.051 44.1947ZM102.32 33.444C104.349 33.444 105.678 35.1355 105.678 37.7085C105.678 40.3046 104.349 41.9838 102.32 41.9838C100.327 41.9838 98.9864 40.2691 98.9864 37.7085C98.9864 35.1712 100.327 33.444 102.32 33.444Z" fill="#EFF2F5"/>
<path d="M117.6 39.2049C117.793 40.9334 119.472 42.0683 121.767 42.0683C123.966 42.0683 125.548 40.9334 125.548 39.3748C125.548 38.0219 124.594 37.2118 122.335 36.6566L120.076 36.1124C116.875 35.3393 115.389 33.8424 115.389 31.4135C115.389 28.406 118.01 26.3403 121.731 26.3403C125.415 26.3403 127.94 28.406 128.025 31.4135H125.391C125.234 29.674 123.796 28.624 121.694 28.624C119.593 28.624 118.155 29.6863 118.155 31.2326C118.155 32.4648 119.074 33.19 121.32 33.7451L123.241 34.2166C126.817 35.0623 128.303 36.499 128.303 39.0485C128.303 42.3094 125.705 44.3519 121.574 44.3519C117.708 44.3519 115.098 42.3575 114.93 39.2048L117.6 39.2049Z" fill="#EFF2F5"/>
<path d="M133.935 28.3457V31.3532H136.352V33.4189H133.935V40.4247C133.935 41.5131 134.419 42.0203 135.481 42.0203C135.768 42.0153 136.055 41.9952 136.34 41.9599V44.0133C135.862 44.1026 135.376 44.1429 134.891 44.1339C132.318 44.1339 131.314 43.1675 131.314 40.7029V33.4189H129.467V31.3532H131.314V28.3457H133.935Z" fill="#EFF2F5"/>
<path fill-rule="evenodd" clip-rule="evenodd" d="M143.78 31.1963C140.107 31.1963 137.752 33.7089 137.752 37.7074C137.752 41.7169 140.084 44.2185 143.78 44.2185C147.477 44.2185 149.808 41.7169 149.808 37.7074C149.808 33.7089 147.464 31.1963 143.78 31.1963ZM143.775 33.3456C145.888 33.3456 147.145 34.9645 147.145 37.7073C147.145 40.4613 145.888 42.0677 143.775 42.0677C141.661 42.0677 140.406 40.4613 140.406 37.7073C140.406 34.9769 141.661 33.3456 143.775 33.3456Z" fill="#EFF2F5"/>
<path d="M151.957 31.3521H154.445V33.515H154.505C154.852 32.1227 156.127 31.1643 157.561 31.219C157.862 31.218 158.162 31.2506 158.456 31.3164V33.7563C158.076 33.6403 157.68 33.5871 157.284 33.5986C156.517 33.5676 155.775 33.8732 155.252 34.4353C154.729 34.9975 154.478 35.7598 154.566 36.5225V44.0602H151.957V31.3521Z" fill="#EFF2F5"/>
<path fill-rule="evenodd" clip-rule="evenodd" d="M165.009 44.2185C167.884 44.2185 170.13 42.6352 170.482 40.3283L168.005 40.3282C167.529 41.5074 166.335 42.2344 165.07 42.1158C164.121 42.1506 163.202 41.7761 162.548 41.0874C161.893 40.3988 161.567 39.4623 161.651 38.5161V38.3586H170.626V37.4648C170.626 33.6116 168.416 31.1963 164.9 31.1963C161.325 31.1963 159.018 33.7816 159.018 37.7677C159.018 41.7415 161.312 44.2185 165.009 44.2185ZM168.017 36.5356H161.664C161.661 35.6776 162.002 34.8543 162.61 34.2487C163.217 33.6429 164.041 33.3051 164.9 33.3102C165.752 33.2919 166.571 33.6296 167.163 34.2419C167.755 34.8542 168.064 35.6855 168.017 36.5356Z" fill="#EFF2F5"/>
<path fill-rule="evenodd" clip-rule="evenodd" d="M67.0166 21.8849V13.5098H70.3831C71.9567 13.5098 72.9026 14.3103 72.9026 15.5988C72.9033 16.4714 72.2896 17.224 71.4346 17.3985V17.4973C72.5044 17.5479 73.34 18.44 73.3207 19.5109C73.3207 20.9851 72.2473 21.8851 70.4585 21.8851L67.0166 21.8849ZM68.3181 17.0561H69.8615C71.0116 17.0561 71.6093 16.6325 71.6093 15.8376C71.6093 15.0652 71.0459 14.6127 70.0822 14.6127H68.3181V17.0561ZM71.9917 19.4184C71.9917 20.306 71.3708 20.7822 70.1988 20.7822H68.3181V18.0832H70.1234C71.3474 18.0832 71.9917 18.5418 71.9917 19.4184Z" fill="#EFF2F5"/>
<path fill-rule="evenodd" clip-rule="evenodd" d="M77.0094 18.211C75.5057 18.3042 74.6586 18.9602 74.6586 20.0979C74.6607 20.6373 74.8908 21.1507 75.2923 21.5111C75.6937 21.8716 76.2288 22.0453 76.7654 21.9894C77.5307 22.0249 78.2561 21.6457 78.6639 20.9971H78.7625V21.8853H79.9633V17.5668C79.9633 16.2317 79.0696 15.4429 77.4849 15.4429C76.0512 15.4429 75.03 16.1392 74.9026 17.2248H76.1102C76.2486 16.778 76.7311 16.5222 77.4274 16.5222C78.28 16.5222 78.7214 16.8993 78.7214 17.5668V18.1124L77.0094 18.211ZM78.7244 19.0295V19.5579C78.697 19.9607 78.5074 20.3352 78.199 20.5957C77.8905 20.8561 77.4895 20.9803 77.0877 20.9396C76.4091 20.9396 75.9157 20.6086 75.9157 20.0396C75.9157 19.4825 76.3105 19.1863 77.1808 19.1281L78.7244 19.0295Z" fill="#EFF2F5"/>
<path fill-rule="evenodd" clip-rule="evenodd" d="M82.2129 12.9165C81.9129 13.0568 81.7288 13.3659 81.7485 13.6965C81.7505 13.9058 81.8378 14.1052 81.9901 14.2487C82.1426 14.3921 82.3469 14.4672 82.5559 14.4566C82.8871 14.4563 83.1845 14.254 83.3065 13.9461C83.4285 13.6382 83.3503 13.2871 83.1091 13.0601C82.8679 12.8331 82.5128 12.7762 82.2129 12.9165ZM83.1771 15.5655H81.9339V21.8861H83.1771V15.5655Z" fill="#EFF2F5"/>
<path d="M87.4634 19.6451L86.0818 21.8855H84.7124L86.8082 18.7396L84.6946 15.5649H86.1517L87.51 17.7939H87.6088L88.9548 15.5649H90.3421L88.2585 18.6876L90.3654 21.8855H88.9329L87.5567 19.6451H87.4634Z" fill="#EFF2F5"/>
<path fill-rule="evenodd" clip-rule="evenodd" d="M93.8121 18.211C92.3084 18.3042 91.4613 18.9602 91.4613 20.0979C91.4634 20.6373 91.6936 21.1507 92.095 21.5111C92.4964 21.8716 93.0315 22.0453 93.5681 21.9894C94.3336 22.0249 95.0588 21.6457 95.4666 20.9971H95.5652V21.8853H96.766V17.5668C96.766 16.2317 95.8723 15.4429 94.2878 15.4429C92.8539 15.4429 91.8327 16.1392 91.7053 17.2248H92.9129C93.0513 16.778 93.5338 16.5222 94.2301 16.5222C95.0828 16.5222 95.5242 16.8993 95.5242 17.5668V18.1124L93.8121 18.211ZM95.5216 19.0295V19.5579C95.4943 19.9607 95.3047 20.3352 94.9962 20.5957C94.6877 20.8561 94.2867 20.9803 93.885 20.9396C93.2064 20.9396 92.7129 20.6086 92.7129 20.0396C92.7129 19.4825 93.1077 19.1863 93.9781 19.1281L95.5216 19.0295Z" fill="#EFF2F5"/>
<path d="M98.7228 15.5658H99.9235V16.5349H100.017C100.293 15.8447 100.982 15.4109 101.723 15.4609C101.91 15.4584 102.097 15.4758 102.28 15.5129V16.744C102.051 16.6952 101.818 16.6698 101.584 16.6687C101.168 16.6312 100.755 16.7714 100.448 17.0542C100.14 17.3372 99.967 17.7368 99.9702 18.1545V21.8864H98.7228V15.5658Z" fill="#EFF2F5"/>
<path d="M107.084 15.5658H108.286V16.5699H108.379C108.703 15.8306 109.461 15.3783 110.265 15.4438C110.888 15.3969 111.499 15.6359 111.924 16.0932C112.35 16.5506 112.544 17.1766 112.453 17.7946V21.8862H111.206V18.1077C111.206 17.092 110.764 16.587 109.842 16.587C109.419 16.5673 109.009 16.7331 108.719 17.041C108.429 17.3488 108.288 17.7681 108.332 18.1887V21.8862H107.084V15.5658Z" fill="#EFF2F5"/>
<path fill-rule="evenodd" clip-rule="evenodd" d="M116.375 18.211C114.871 18.3042 114.024 18.9602 114.024 20.0979C114.026 20.6373 114.257 21.1507 114.658 21.5111C115.059 21.8716 115.594 22.0453 116.131 21.9894C116.896 22.0249 117.622 21.6457 118.029 20.9971H118.128V21.8853H119.329V17.5668C119.329 16.2317 118.435 15.4429 116.851 15.4429C115.417 15.4429 114.396 16.1392 114.268 17.2248H115.476C115.614 16.778 116.097 16.5222 116.793 16.5222C117.646 16.5222 118.087 16.8993 118.087 17.5668V18.1124L116.375 18.211ZM118.086 19.0295V19.5579C118.059 19.9607 117.869 20.3352 117.56 20.5957C117.252 20.8561 116.851 20.9803 116.449 20.9396C115.771 20.9396 115.277 20.6086 115.277 20.0396C115.277 19.4825 115.672 19.1863 116.542 19.1281L118.086 19.0295Z" fill="#EFF2F5"/>
</g>
</g>
</g>
<defs>
<clipPath id="clip0_1385_1397">
<rect width="192.713" height="59.5144" fill="white" transform="translate(0.0864258 0.0883789)"/>
</clipPath>
<clipPath id="clip1_1385_1397">
<rect width="192.713" height="59.5144" fill="white" transform="translate(0.0864258 0.0878906)"/>
</clipPath>
<clipPath id="clip2_1385_1397">
<rect width="192.713" height="59.5144" fill="white" transform="translate(0.0864258 0.0874023)"/>
</clipPath>
</defs>
</svg>
