<svg width="249" height="51" viewBox="0 0 249 51" fill="none" xmlns="http://www.w3.org/2000/svg">
<g clip-path="url(#clip0_1385_4577)">
<g filter="url(#filter0_d_1385_4577)">
<path fill-rule="evenodd" clip-rule="evenodd" d="M39.3556 11.9396C44.5326 8.81698 49.731 5.68141 53.5029 3.50148C58.0001 0.902248 62.4529 0.0341797 67.889 0.0341797C81.9042 0.0341797 92.667 11.9081 92.667 25.4376C92.667 37.6395 83.2693 50.4373 67.2334 50.4373C57.6708 50.4373 51.3911 45.1276 49.8919 43.5415L58.4497 38.3496C58.5722 38.4234 58.6984 38.4959 58.8286 38.5669C61.3488 40.2298 64.3681 41.1978 67.6137 41.1978C76.4347 41.1978 83.5855 34.047 83.5855 25.2261C83.5855 16.4052 76.4347 9.25437 67.6137 9.25437C65.5787 9.25437 63.6333 9.63475 61.8437 10.3284C60.576 10.6905 59.2649 11.2376 57.9362 12.0228C49.1427 17.2187 40.7179 22.0828 34.8797 25.4508C33.0018 26.5342 26.3405 27.4963 23.9006 21.1215C27.6022 19.0289 33.465 15.4927 39.3556 11.9396Z" fill="#FC0001"/>
<path fill-rule="evenodd" clip-rule="evenodd" d="M53.9785 38.5319C48.8016 41.6544 43.6031 44.79 39.8313 46.97C35.334 49.5692 30.8813 50.4373 25.4455 50.4373C11.4297 50.4373 0.667267 38.5633 0.667267 25.0338C0.667275 12.8319 10.0651 0.0341797 26.1006 0.0341797C35.6634 0.0341797 41.943 5.34388 43.4423 6.93003L34.8845 12.1218C34.7619 12.0481 34.6357 11.9755 34.5056 11.9045C31.9853 10.2416 28.966 9.27365 25.7207 9.27365C16.8998 9.27365 9.74899 16.4244 9.74899 25.2454C9.74899 34.0663 16.8998 41.2171 25.7207 41.2171C27.7552 41.2171 29.7009 40.8367 31.4905 40.1431C32.7582 39.7809 34.0693 39.2338 35.398 38.4487C44.1915 33.2528 52.6163 28.3886 58.4545 25.0206C60.3324 23.9373 66.9936 22.9752 69.4336 29.3499C65.7322 31.4425 59.8692 34.9788 53.9785 38.5319Z" fill="#17739E"/>
<path d="M101.351 15.0797H109.971C111.677 15.0797 112.947 15.1532 113.781 15.3003C114.624 15.4376 115.374 15.7318 116.031 16.1828C116.698 16.6339 117.252 17.237 117.693 17.9921C118.134 18.7374 118.355 19.5758 118.355 20.5074C118.355 21.5174 118.081 22.4441 117.531 23.2875C116.992 24.1308 116.257 24.7633 115.325 25.185C116.639 25.5674 117.649 26.2195 118.355 27.1413C119.061 28.0631 119.414 29.1467 119.414 30.3921C119.414 31.3727 119.184 32.3288 118.723 33.2604C118.272 34.1822 117.649 34.9226 116.855 35.4815C116.07 36.0307 115.1 36.369 113.942 36.4965C113.217 36.5749 111.466 36.6239 108.691 36.6436H101.351V15.0797ZM105.705 18.6687V23.6552H108.558C110.255 23.6552 111.309 23.6307 111.721 23.5816C112.467 23.4934 113.05 23.2384 113.471 22.8168C113.903 22.3853 114.119 21.8214 114.119 21.1252C114.119 20.4584 113.933 19.919 113.56 19.5072C113.197 19.0855 112.653 18.8305 111.927 18.7423C111.495 18.6932 110.255 18.6687 108.205 18.6687H105.705ZM105.705 27.2443V33.0103H109.736C111.304 33.0103 112.299 32.9662 112.721 32.878C113.368 32.7603 113.893 32.4759 114.296 32.0248C114.707 31.5639 114.913 30.9511 114.913 30.1862C114.913 29.5389 114.756 28.9898 114.443 28.5387C114.128 28.0876 113.672 27.7591 113.074 27.5532C112.486 27.3472 111.201 27.2443 109.221 27.2443H105.705ZM126.552 36.6436H122.418V21.0222H126.258V23.2434C126.915 22.1941 127.503 21.5027 128.022 21.1693C128.552 20.8359 129.15 20.6692 129.817 20.6692C130.759 20.6692 131.666 20.9291 132.538 21.4488L131.259 25.0526C130.562 24.6015 129.915 24.3759 129.317 24.3759C128.738 24.3759 128.248 24.5378 127.846 24.8613C127.444 25.1752 127.125 25.7488 126.89 26.5823C126.664 27.4159 126.552 29.1614 126.552 31.8189V36.6436ZM136.94 25.7881L133.189 25.1114C133.611 23.6012 134.336 22.4834 135.366 21.7577C136.396 21.032 137.925 20.6692 139.955 20.6692C141.799 20.6692 143.171 20.8898 144.074 21.3311C144.976 21.7626 145.609 22.3167 145.972 22.9933C146.344 23.6601 146.53 24.8908 146.53 26.6853L146.486 31.51C146.486 32.8829 146.55 33.8978 146.677 34.5548C146.815 35.2021 147.065 35.8983 147.427 36.6436H143.339C143.23 36.369 143.098 35.962 142.941 35.4227C142.873 35.1775 142.824 35.0157 142.794 34.9373C142.088 35.6237 141.333 36.1385 140.529 36.4818C139.725 36.825 138.867 36.9966 137.955 36.9966C136.347 36.9966 135.077 36.5602 134.145 35.6875C133.223 34.8147 132.762 33.7115 132.762 32.3778C132.762 31.4953 132.973 30.7108 133.395 30.0243C133.817 29.3281 134.405 28.7986 135.16 28.4358C135.925 28.0631 137.023 27.7395 138.455 27.4649C140.387 27.1021 141.725 26.7638 142.47 26.45V26.0381C142.47 25.2438 142.274 24.6799 141.882 24.3465C141.49 24.0033 140.75 23.8317 139.661 23.8317C138.926 23.8317 138.352 23.9788 137.94 24.273C137.528 24.5573 137.195 25.0624 136.94 25.7881ZM142.47 29.1418C141.941 29.3183 141.103 29.5291 139.955 29.7743C138.808 30.0195 138.058 30.2597 137.705 30.4951C137.166 30.8775 136.896 31.3629 136.896 31.9513C136.896 32.5298 137.112 33.0299 137.543 33.4516C137.975 33.8733 138.523 34.0841 139.19 34.0841C139.936 34.0841 140.647 33.839 141.323 33.3486C141.823 32.976 142.152 32.5201 142.308 31.9807C142.417 31.6277 142.47 30.9559 142.47 29.9655V29.1418ZM164.464 36.6436H160.625V34.3489C159.988 35.2413 159.233 35.9081 158.36 36.3494C157.497 36.7809 156.624 36.9966 155.742 36.9966C153.947 36.9966 152.408 36.2758 151.123 34.8343C149.848 33.383 149.211 31.3629 149.211 28.7741C149.211 26.1263 149.834 24.1161 151.079 22.7432C152.324 21.3605 153.898 20.6692 155.801 20.6692C157.546 20.6692 159.056 21.3949 160.331 22.8462V15.0797H164.464V36.6436ZM153.433 28.4946C153.433 30.1616 153.663 31.3678 154.124 32.1131C154.791 33.1918 155.722 33.7311 156.918 33.7311C157.87 33.7311 158.679 33.3291 159.345 32.5249C160.013 31.711 160.346 30.4999 160.346 28.8917C160.346 27.0972 160.022 25.8076 159.375 25.0232C158.728 24.2289 157.899 23.8317 156.889 23.8317C155.908 23.8317 155.085 24.2239 154.418 25.0085C153.761 25.7832 153.433 26.9452 153.433 28.4946ZM167.116 28.6122C167.116 27.2394 167.454 25.9107 168.13 24.626C168.807 23.3414 169.764 22.3608 170.999 21.6841C172.244 21.0075 173.632 20.6692 175.162 20.6692C177.525 20.6692 179.462 21.439 180.972 22.9786C182.482 24.5084 183.237 26.445 183.237 28.7888C183.237 31.152 182.472 33.1133 180.942 34.6725C179.422 36.2219 177.505 36.9966 175.191 36.9966C173.759 36.9966 172.391 36.673 171.087 36.0257C169.793 35.3786 168.807 34.4322 168.13 33.1869C167.454 31.9316 167.116 30.4068 167.116 28.6122ZM171.352 28.8329C171.352 30.3823 171.72 31.5688 172.455 32.3926C173.19 33.2163 174.098 33.6281 175.176 33.6281C176.255 33.6281 177.157 33.2163 177.883 32.3926C178.618 31.5688 178.986 30.3725 178.986 28.8035C178.986 27.2737 178.618 26.0969 177.883 25.2732C177.157 24.4495 176.255 24.0377 175.176 24.0377C174.098 24.0377 173.19 24.4495 172.455 25.2732C171.72 26.0969 171.352 27.2835 171.352 28.8329ZM199.833 28.7152L204.054 30.0538C203.407 32.4073 202.329 34.1577 200.818 35.305C199.318 36.4425 197.41 37.0113 195.096 37.0113C192.233 37.0113 189.879 36.0356 188.035 34.0841C186.192 32.1229 185.27 29.4457 185.27 26.0528C185.27 22.4637 186.197 19.6788 188.05 17.6979C189.904 15.7072 192.341 14.7119 195.361 14.7119C197.999 14.7119 200.141 15.4915 201.789 17.0507C202.77 17.9725 203.505 19.2963 203.996 21.0222L199.686 22.0519C199.43 20.9339 198.896 20.0514 198.082 19.4042C197.278 18.757 196.297 18.4333 195.14 18.4333C193.542 18.4333 192.243 19.007 191.242 20.1543C190.252 21.3017 189.757 23.16 189.757 25.7292C189.757 28.4553 190.247 30.397 191.228 31.5541C192.208 32.7113 193.483 33.2898 195.052 33.2898C196.209 33.2898 197.204 32.9221 198.038 32.1867C198.871 31.4512 199.47 30.294 199.833 28.7152ZM226.769 36.6436H222.032L220.149 31.7453H211.53L209.75 36.6436H205.131L213.531 15.0797H218.134L226.769 36.6436ZM218.753 28.1121L215.781 20.1102L212.868 28.1121H218.753ZM228.626 36.6436V15.0797H237.79C240.094 15.0797 241.766 15.2758 242.806 15.668C243.854 16.0505 244.693 16.7369 245.321 17.7273C245.948 18.7178 246.262 19.8503 246.262 21.1252C246.262 22.7432 245.786 24.0818 244.835 25.1408C243.884 26.1901 242.462 26.852 240.57 27.1266C241.511 27.6758 242.286 28.2788 242.894 28.9359C243.512 29.5929 244.34 30.7598 245.38 32.4367L248.013 36.6436H242.806L239.657 31.9513C238.54 30.2744 237.775 29.2202 237.363 28.7888C236.951 28.3475 236.515 28.0484 236.054 27.8915C235.593 27.7248 234.862 27.6414 233.862 27.6414H232.98V36.6436H228.626ZM232.98 24.1994H236.201C238.29 24.1994 239.594 24.1112 240.114 23.9347C240.633 23.7582 241.04 23.4542 241.335 23.0227C241.629 22.5912 241.776 22.0519 241.776 21.4046C241.776 20.679 241.58 20.0955 241.188 19.6542C240.805 19.2032 240.261 18.9188 239.554 18.8011C239.202 18.7521 238.143 18.7275 236.377 18.7275H232.98V24.1994Z" fill="black"/>
</g>
</g>
<defs>
<filter id="filter0_d_1385_4577" x="0.40811" y="0.0341797" width="247.864" height="50.9216" filterUnits="userSpaceOnUse" color-interpolation-filters="sRGB">
<feFlood flood-opacity="0" result="BackgroundImageFix"/>
<feColorMatrix in="SourceAlpha" type="matrix" values="0 0 0 0 0 0 0 0 0 0 0 0 0 0 0 0 0 0 127 0" result="hardAlpha"/>
<feOffset dy="0.259157"/>
<feGaussianBlur stdDeviation="0.129578"/>
<feComposite in2="hardAlpha" operator="out"/>
<feColorMatrix type="matrix" values="0 0 0 0 0 0 0 0 0 0 0 0 0 0 0 0 0 0 0.25 0"/>
<feBlend mode="normal" in2="BackgroundImageFix" result="effect1_dropShadow_1385_4577"/>
<feBlend mode="normal" in="SourceGraphic" in2="effect1_dropShadow_1385_4577" result="shape"/>
</filter>
<clipPath id="clip0_1385_4577">
<rect width="247.883" height="50.9891" fill="white" transform="translate(0.396851)"/>
</clipPath>
</defs>
</svg>
