<svg width="789" height="163" viewBox="0 0 789 163" fill="none" xmlns="http://www.w3.org/2000/svg">
<g clip-path="url(#clip0_1380_18)">
<g filter="url(#filter0_d_1380_18)">
<path fill-rule="evenodd" clip-rule="evenodd" d="M124.501 38.2334C140.954 28.3097 157.474 18.3449 169.461 11.4171C183.753 3.15678 197.904 0.398071 215.18 0.398071C259.72 0.398071 293.924 38.1334 293.924 81.1298C293.924 119.907 264.058 160.578 213.096 160.578C182.706 160.578 162.75 143.704 157.985 138.664L185.182 122.164C185.571 122.399 185.972 122.629 186.386 122.854C194.395 128.139 203.991 131.215 214.305 131.215C242.338 131.215 265.063 108.49 265.063 80.4576C265.063 52.4248 242.338 29.6997 214.305 29.6997C207.838 29.6997 201.655 30.9086 195.968 33.1129C191.939 34.2637 187.773 36.0025 183.55 38.4976C155.604 55.0103 128.83 70.4684 110.277 81.1718C104.309 84.6149 83.1391 87.6723 75.3854 67.4134C87.149 60.7631 105.781 49.5249 124.501 38.2334Z" fill="#FC0001"/>
<path fill-rule="evenodd" clip-rule="evenodd" d="M170.973 122.743C154.52 132.667 138 142.632 126.013 149.56C111.721 157.82 97.5697 160.579 80.2948 160.579C35.7531 160.579 1.55005 122.843 1.55005 79.8468C1.55008 41.0694 31.4162 0.398315 82.3769 0.398315C112.767 0.398315 132.724 17.2725 137.488 22.3132L110.292 38.8126C109.902 38.5782 109.501 38.3476 109.088 38.1222C101.078 32.8374 91.4832 29.7612 81.1695 29.7612C53.1367 29.7612 30.4116 52.4863 30.4116 80.5193C30.4116 108.552 53.1367 131.277 81.1695 131.277C87.6351 131.277 93.8185 130.068 99.5058 127.864C103.535 126.713 107.701 124.974 111.924 122.479C139.869 105.967 166.643 90.5083 185.197 79.8048C191.165 76.362 212.334 73.3046 220.089 93.5634C208.326 100.214 189.693 111.452 170.973 122.743Z" fill="#17739E"/>
<path d="M321.523 48.2129H348.916C354.337 48.2129 358.372 48.4466 361.022 48.914C363.703 49.3503 366.088 50.2853 368.175 51.7188C370.294 53.1525 372.054 55.069 373.457 57.4685C374.859 59.8372 375.561 62.5015 375.561 65.4621C375.561 68.6721 374.688 71.6171 372.942 74.2973C371.229 76.9772 368.892 78.9874 365.931 80.3274C370.107 81.5429 373.317 83.6152 375.561 86.5448C377.805 89.4741 378.925 92.9177 378.925 96.8755C378.925 99.992 378.194 103.03 376.728 105.991C375.295 108.92 373.317 111.273 370.792 113.05C368.299 114.795 365.215 115.87 361.537 116.275C359.231 116.524 353.668 116.68 344.849 116.743H321.523V48.2129ZM335.359 59.6189V75.4659H344.427C349.819 75.4659 353.169 75.3879 354.477 75.232C356.847 74.9516 358.7 74.1414 360.04 72.8014C361.412 71.4301 362.097 69.6382 362.097 67.4256C362.097 65.3065 361.506 63.5924 360.32 62.2835C359.167 60.9435 357.438 60.133 355.132 59.8526C353.76 59.6967 349.819 59.6189 343.305 59.6189H335.359ZM335.359 86.8719V105.196H348.168C353.153 105.196 356.316 105.056 357.656 104.776C359.713 104.402 361.381 103.498 362.659 102.064C363.967 100.6 364.622 98.652 364.622 96.2212C364.622 94.1643 364.123 92.4191 363.127 90.9856C362.128 89.5521 360.679 88.508 358.778 87.8537C356.909 87.1991 352.826 86.8719 346.531 86.8719H335.359ZM401.609 116.743H388.473V67.0984H400.674V74.157C402.762 70.8225 404.632 68.6254 406.283 67.5658C407.965 66.5062 409.868 65.9765 411.987 65.9765C414.978 65.9765 417.861 66.8023 420.634 68.4541L416.568 79.9068C414.354 78.4733 412.297 77.7564 410.397 77.7564C408.558 77.7564 407 78.2707 405.723 79.299C404.444 80.2963 403.431 82.1194 402.684 84.7683C401.967 87.4174 401.609 92.9645 401.609 101.41V116.743ZM434.623 82.2441L422.702 80.0937C424.042 75.2944 426.348 71.7419 429.62 69.4356C432.894 67.1295 437.755 65.9765 444.206 65.9765C450.063 65.9765 454.426 66.6776 457.295 68.0799C460.161 69.4512 462.172 71.2121 463.325 73.3623C464.509 75.4814 465.1 79.3926 465.1 85.0956L464.96 100.428C464.96 104.791 465.164 108.017 465.568 110.105C466.004 112.162 466.799 114.374 467.952 116.743H454.958C454.614 115.87 454.194 114.577 453.696 112.863C453.477 112.084 453.321 111.57 453.228 111.32C450.984 113.502 448.583 115.138 446.028 116.229C443.473 117.319 440.747 117.865 437.847 117.865C432.737 117.865 428.701 116.478 425.741 113.704C422.811 110.931 421.347 107.425 421.347 103.186C421.347 100.382 422.016 97.8884 423.356 95.7069C424.697 93.4943 426.566 91.8115 428.967 90.6584C431.397 89.4741 434.887 88.4456 439.437 87.5732C445.577 86.42 449.831 85.345 452.199 84.3476V83.0387C452.199 80.5144 451.575 78.7224 450.329 77.6629C449.083 76.5722 446.73 76.0268 443.271 76.0268C440.934 76.0268 439.11 76.4942 437.802 77.4292C436.493 78.3329 435.432 79.9379 434.623 82.2441ZM452.199 92.9021C450.516 93.4632 447.852 94.1332 444.206 94.9123C440.559 95.6914 438.175 96.4549 437.053 97.2029C435.34 98.4181 434.483 99.9609 434.483 101.831C434.483 103.669 435.169 105.259 436.54 106.599C437.911 107.939 439.655 108.609 441.774 108.609C444.144 108.609 446.403 107.83 448.552 106.272C450.142 105.087 451.186 103.638 451.684 101.924C452.028 100.802 452.199 98.6675 452.199 95.5199V92.9021ZM522.095 116.743H509.894V109.45C507.87 112.286 505.469 114.405 502.695 115.808C499.953 117.179 497.179 117.865 494.375 117.865C488.672 117.865 483.779 115.574 479.696 110.993C475.644 106.381 473.62 99.9609 473.62 91.7336C473.62 83.3191 475.599 76.9305 479.556 72.5677C483.514 68.1734 488.515 65.9765 494.562 65.9765C500.109 65.9765 504.909 68.2825 508.959 72.8949V48.2129H522.095V116.743ZM487.037 90.8454C487.037 96.1432 487.768 99.9764 489.234 102.345C491.352 105.773 494.313 107.487 498.114 107.487C501.137 107.487 503.708 106.209 505.827 103.654C507.948 101.067 509.006 97.2184 509.006 92.1075C509.006 86.4045 507.979 82.3063 505.922 79.8133C503.865 77.289 501.231 76.0268 498.021 76.0268C494.904 76.0268 492.287 77.2733 490.169 79.7666C488.081 82.2285 487.037 85.9215 487.037 90.8454ZM530.521 91.2193C530.521 86.8563 531.595 82.6337 533.745 78.5511C535.897 74.4686 538.936 71.3523 542.862 69.2019C546.82 67.0515 551.23 65.9765 556.091 65.9765C563.6 65.9765 569.757 68.4228 574.556 73.3155C579.354 78.1772 581.755 84.332 581.755 91.7804C581.755 99.2907 579.323 105.524 574.462 110.479C569.631 115.403 563.539 117.865 556.184 117.865C551.633 117.865 547.287 116.836 543.142 114.779C539.028 112.723 535.897 109.715 533.745 105.757C531.595 101.768 530.521 96.9223 530.521 91.2193ZM543.984 91.9206C543.984 96.8445 545.152 100.615 547.489 103.233C549.826 105.851 552.71 107.16 556.137 107.16C559.565 107.16 562.433 105.851 564.739 103.233C567.076 100.615 568.245 96.8134 568.245 91.8271C568.245 86.9654 567.076 83.2257 564.739 80.6079C562.433 77.9901 559.565 76.6814 556.137 76.6814C552.71 76.6814 549.826 77.9901 547.489 80.6079C545.152 83.2257 543.984 86.9965 543.984 91.9206ZM634.496 91.5465L647.912 95.8005C645.855 103.28 642.427 108.843 637.627 112.489C632.859 116.104 626.797 117.911 619.442 117.911C610.344 117.911 602.863 114.811 597.003 108.609C591.146 102.376 588.216 93.8682 588.216 83.0854C588.216 71.6795 591.162 62.8289 597.051 56.5337C602.942 50.2073 610.685 47.0443 620.284 47.0443C628.667 47.0443 635.476 49.5218 640.712 54.4768C643.829 57.4063 646.166 61.6135 647.725 67.0984L634.028 70.3706C633.217 66.8178 631.518 64.013 628.932 61.9563C626.377 59.8994 623.26 58.8709 619.582 58.8709C614.503 58.8709 610.374 60.6941 607.195 64.3402C604.047 67.9865 602.474 73.8921 602.474 82.057C602.474 90.7206 604.033 96.8912 607.148 100.569C610.265 104.246 614.315 106.085 619.302 106.085C622.98 106.085 626.142 104.916 628.792 102.579C631.44 100.241 633.343 96.564 634.496 91.5465ZM720.098 116.743H705.045L699.061 101.176H671.669L666.013 116.743H651.334L678.027 48.2129H692.658L720.098 116.743ZM694.622 89.63L685.178 64.2L675.922 89.63H694.622ZM725.999 116.743V48.2129H755.122C762.445 48.2129 767.76 48.8362 771.062 50.0827C774.396 51.2981 777.06 53.4796 779.055 56.6272C781.05 59.7748 782.047 63.3741 782.047 67.4256C782.047 72.5677 780.536 76.8216 777.513 80.1872C774.491 83.5217 769.971 85.6254 763.957 86.498C766.948 88.2432 769.411 90.1597 771.342 92.2478C773.307 94.3358 775.94 98.0442 779.243 103.373L787.61 116.743H771.062L761.058 101.831C757.506 96.5016 755.074 93.1514 753.767 91.7804C752.457 90.378 751.069 89.4273 749.606 88.9289C748.142 88.3989 745.819 88.1341 742.64 88.1341H739.836V116.743H725.999ZM739.836 77.1955H750.073C756.711 77.1955 760.856 76.9151 762.507 76.354C764.158 75.7931 765.452 74.827 766.388 73.4558C767.323 72.0845 767.791 70.3706 767.791 68.3136C767.791 66.0076 767.167 64.1532 765.921 62.7509C764.704 61.3174 762.975 60.4137 760.73 60.0396C759.61 59.8839 756.244 59.8059 750.633 59.8059H739.836V77.1955Z" fill="white"/>
</g>
</g>
<defs>
<filter id="filter0_d_1380_18" x="0.726452" y="0.398071" width="787.708" height="161.828" filterUnits="userSpaceOnUse" color-interpolation-filters="sRGB">
<feFlood flood-opacity="0" result="BackgroundImageFix"/>
<feColorMatrix in="SourceAlpha" type="matrix" values="0 0 0 0 0 0 0 0 0 0 0 0 0 0 0 0 0 0 127 0" result="hardAlpha"/>
<feOffset dy="0.823596"/>
<feGaussianBlur stdDeviation="0.411798"/>
<feComposite in2="hardAlpha" operator="out"/>
<feColorMatrix type="matrix" values="0 0 0 0 0 0 0 0 0 0 0 0 0 0 0 0 0 0 0.25 0"/>
<feBlend mode="normal" in2="BackgroundImageFix" result="effect1_dropShadow_1380_18"/>
<feBlend mode="normal" in="SourceGraphic" in2="effect1_dropShadow_1380_18" result="shape"/>
</filter>
<clipPath id="clip0_1380_18">
<rect width="787.77" height="162.043" fill="white" transform="translate(0.690674 0.288696)"/>
</clipPath>
</defs>
</svg>
