<svg width="294" height="161" viewBox="0 0 294 161" fill="none" xmlns="http://www.w3.org/2000/svg">
<path fill-rule="evenodd" clip-rule="evenodd" d="M123.81 38.2348C140.263 28.3111 156.783 18.3463 168.77 11.4185C183.062 3.15814 197.213 0.399429 214.489 0.399429C259.029 0.399429 293.233 38.1347 293.233 81.1312C293.233 119.909 263.368 160.58 212.406 160.58C182.016 160.58 162.059 143.706 157.295 138.665L184.491 122.165C184.881 122.4 185.282 122.63 185.695 122.856C193.705 128.141 203.3 131.217 213.614 131.217C241.647 131.217 264.372 108.492 264.372 80.4589C264.372 52.4262 241.647 29.7011 213.614 29.7011C207.147 29.7011 200.965 30.9099 195.277 33.1143C191.248 34.265 187.082 36.0039 182.859 38.499C154.914 55.0116 128.14 70.4697 109.586 81.1732C103.618 84.6162 82.4485 87.6736 74.6947 67.4148C86.4583 60.7645 105.09 49.5263 123.81 38.2348Z" fill="#FC0001"/>
<path fill-rule="evenodd" clip-rule="evenodd" d="M170.282 122.745C153.83 132.668 137.309 142.633 125.322 149.561C111.03 157.821 96.8791 160.58 79.6041 160.58C35.0624 160.58 0.859375 122.845 0.859375 79.8482C0.859402 41.0708 30.7255 0.399651 81.6862 0.399651C112.077 0.399651 132.033 17.2738 136.798 22.3146L109.601 38.8139C109.212 38.5796 108.811 38.349 108.397 38.1235C100.388 32.8387 90.7925 29.7626 80.4788 29.7626C52.446 29.7626 29.721 52.4877 29.721 80.5206C29.721 108.553 52.446 131.278 80.4788 131.278C86.9444 131.278 93.1278 130.069 98.8151 127.865C102.844 126.714 107.011 124.975 111.233 122.48C139.179 105.968 165.953 90.5096 184.506 79.8061C190.474 76.3633 211.644 73.3059 219.398 93.5647C207.635 100.215 189.002 111.453 170.282 122.745Z" fill="#17739E"/>
</svg>
