<svg width="608" height="811" viewBox="0 0 608 811" fill="none" xmlns="http://www.w3.org/2000/svg">
<path d="M14.4971 366.647C-65.0328 219.976 229.382 232.073 265.995 133.852L290.227 125.101C327.489 237.729 121.975 251.625 183.362 284.701C296.068 345.429 461.451 346.962 607.53 514.025V810.533H24.4971C18.9742 810.533 14.4971 806.046 14.4971 800.523V555.751C32.8543 493.239 45.4493 423.73 14.4971 366.647Z" fill="url(#paint0_linear_1433_160)"/>
<path d="M14.4971 366.647C-65.0328 219.976 229.382 232.073 265.995 133.852L290.227 125.101C327.489 237.729 121.975 251.625 183.362 284.701C296.068 345.429 461.451 346.962 607.53 514.025V810.533H24.4971C18.9742 810.533 14.4971 806.046 14.4971 800.523V555.751C32.8543 493.239 45.4493 423.73 14.4971 366.647Z" fill="url(#paint1_linear_1433_160)"/>
<g filter="url(#filter0_f_1433_160)">
<ellipse cx="45.5222" cy="10.8517" rx="45.5222" ry="10.8517" transform="matrix(-1 0 0 1 320.517 144.208)" fill="#2C2C2C" fill-opacity="0.35"/>
</g>
<path d="M218.624 57.4982C218.624 74.7022 227.16 90.9576 237.644 104.434C250.33 120.741 265.867 142.819 272.583 152.462C274.2 154.784 277.647 154.755 279.238 152.415C285.675 142.949 300.37 121.685 312.81 106.233C323.934 92.4155 333.254 75.4747 333.254 57.4982C333.254 42.2973 327.216 27.719 316.467 16.9703C305.718 6.22164 291.14 0.183105 275.939 0.183105C260.738 0.183105 246.16 6.22164 235.411 16.9703C224.662 27.719 218.624 42.2973 218.624 57.4982Z" fill="#FF1818"/>
<path d="M218.624 57.4982C218.624 74.7022 227.16 90.9576 237.644 104.434C250.33 120.741 265.867 142.819 272.583 152.462C274.2 154.784 277.647 154.755 279.238 152.415C285.675 142.949 300.37 121.685 312.81 106.233C323.934 92.4155 333.254 75.4747 333.254 57.4982C333.254 42.2973 327.216 27.719 316.467 16.9703C305.718 6.22164 291.14 0.183105 275.939 0.183105C260.738 0.183105 246.16 6.22164 235.411 16.9703C224.662 27.719 218.624 42.2973 218.624 57.4982Z" fill="url(#paint2_linear_1433_160)" fill-opacity="0.5"/>
<path d="M218.624 57.4982C218.624 74.7022 227.16 90.9576 237.644 104.434C250.33 120.741 265.867 142.819 272.583 152.462C274.2 154.784 277.647 154.755 279.238 152.415C285.675 142.949 300.37 121.685 312.81 106.233C323.934 92.4155 333.254 75.4747 333.254 57.4982C333.254 42.2973 327.216 27.719 316.467 16.9703C305.718 6.22164 291.14 0.183105 275.939 0.183105C260.738 0.183105 246.16 6.22164 235.411 16.9703C224.662 27.719 218.624 42.2973 218.624 57.4982Z" fill="url(#paint3_radial_1433_160)" fill-opacity="0.5"/>
<path d="M218.624 57.4982C218.624 74.7022 227.16 90.9576 237.644 104.434C250.33 120.741 265.867 142.819 272.583 152.462C274.2 154.784 277.647 154.755 279.238 152.415C285.675 142.949 300.37 121.685 312.81 106.233C323.934 92.4155 333.254 75.4747 333.254 57.4982C333.254 42.2973 327.216 27.719 316.467 16.9703C305.718 6.22164 291.14 0.183105 275.939 0.183105C260.738 0.183105 246.16 6.22164 235.411 16.9703C224.662 27.719 218.624 42.2973 218.624 57.4982Z" fill="url(#paint4_radial_1433_160)" fill-opacity="0.3"/>
<path d="M330.668 57.4982C330.668 42.9832 324.902 29.0627 314.638 18.7991C304.375 8.53546 290.454 2.76941 275.939 2.76941C261.424 2.76941 247.504 8.53546 237.24 18.7991C226.976 29.0627 221.21 42.9832 221.21 57.4982C221.21 73.8678 229.353 89.5645 239.686 102.846C252.417 119.212 267.989 141.34 274.705 150.983C275.28 151.809 276.521 151.811 277.099 150.961C283.537 141.493 298.284 120.152 310.796 104.611C321.772 90.9766 330.668 74.6073 330.668 57.4982Z" stroke="#2C2C2C" stroke-opacity="0.5" stroke-width="5.17261" stroke-linecap="round" stroke-linejoin="round"/>
<circle cx="25.4734" cy="25.4734" r="25.4734" transform="matrix(-1 0 0 1 301.412 32.0248)" fill="#FDFBF9"/>
<circle cx="25.4734" cy="25.4734" r="25.4734" transform="matrix(-1 0 0 1 301.412 32.0248)" fill="url(#paint5_radial_1433_160)" fill-opacity="0.5"/>
<defs>
<filter id="filter0_f_1433_160" x="215.679" y="130.415" width="118.632" height="49.2906" filterUnits="userSpaceOnUse" color-interpolation-filters="sRGB">
<feFlood flood-opacity="0" result="BackgroundImageFix"/>
<feBlend mode="normal" in="SourceGraphic" in2="BackgroundImageFix" result="shape"/>
<feGaussianBlur stdDeviation="6.89681" result="effect1_foregroundBlur_1433_160"/>
</filter>
<linearGradient id="paint0_linear_1433_160" x1="43.2048" y1="104.027" x2="312.262" y2="551.484" gradientUnits="userSpaceOnUse">
<stop stop-color="#B8B8B8"/>
<stop offset="1" stop-color="#1C1C1C"/>
</linearGradient>
<linearGradient id="paint1_linear_1433_160" x1="304.228" y1="125.101" x2="304.228" y2="810.533" gradientUnits="userSpaceOnUse">
<stop offset="0.7" stop-opacity="0"/>
<stop offset="1"/>
</linearGradient>
<linearGradient id="paint2_linear_1433_160" x1="333.254" y1="0.183105" x2="222.501" y2="168.087" gradientUnits="userSpaceOnUse">
<stop stop-color="white"/>
<stop offset="0.434216" stop-color="white" stop-opacity="0"/>
</linearGradient>
<radialGradient id="paint3_radial_1433_160" cx="0" cy="0" r="1" gradientUnits="userSpaceOnUse" gradientTransform="translate(213.138 99.657) rotate(-41.282) scale(133.114 97.1166)">
<stop offset="0.868201" stop-color="white" stop-opacity="0"/>
<stop offset="1" stop-color="#5CBBFF"/>
</radialGradient>
<radialGradient id="paint4_radial_1433_160" cx="0" cy="0" r="1" gradientUnits="userSpaceOnUse" gradientTransform="translate(288.109 42.2618) rotate(163.076) scale(72.631 144.514)">
<stop offset="0.661146" stop-opacity="0"/>
<stop offset="1"/>
</radialGradient>
<radialGradient id="paint5_radial_1433_160" cx="0" cy="0" r="1" gradientUnits="userSpaceOnUse" gradientTransform="translate(28.5951 29.3151) rotate(-120.043) scale(33.8648)">
<stop offset="0.679524" stop-opacity="0"/>
<stop offset="1"/>
</radialGradient>
</defs>
</svg>
