<svg width="194" height="60" viewBox="0 0 194 60" fill="none" xmlns="http://www.w3.org/2000/svg">
<g clip-path="url(#clip0_1385_1420)">
<g clip-path="url(#clip1_1385_1420)">
<g clip-path="url(#clip2_1385_1420)">
<path fill-rule="evenodd" clip-rule="evenodd" d="M147.549 43.22H149.859V27.7456H147.549V43.22ZM168.354 33.3196L165.707 40.0287H165.627L162.88 33.3196H160.393L164.514 42.6963L162.163 47.9126H164.572L170.923 33.3196H168.354ZM155.252 41.4621C154.498 41.4621 153.441 41.0833 153.441 40.1488C153.441 38.9543 154.756 38.4963 155.891 38.4963C156.906 38.4963 157.385 38.7154 158.001 39.0137C157.821 40.4471 156.587 41.4621 155.252 41.4621ZM155.534 32.9817C153.861 32.9817 152.129 33.7182 151.412 35.351L153.462 36.2063C153.9 35.351 154.718 35.0711 155.572 35.0711C156.767 35.0711 157.981 35.7878 158.001 37.0616V37.2213C157.583 36.9824 156.687 36.6247 155.592 36.6247C153.382 36.6247 151.133 37.839 151.133 40.108C151.133 42.179 152.945 43.5134 154.976 43.5134C156.527 43.5134 157.385 42.8165 157.922 41.9994H158.001V43.194H160.233V37.2622C160.233 34.5141 158.18 32.9817 155.534 32.9817ZM141.259 35.2036H137.973V29.8995H141.259C142.985 29.8995 143.966 31.3291 143.966 32.551C143.966 33.7503 142.985 35.2036 141.259 35.2036ZM141.199 27.7456H135.664V43.22H137.973V37.3575H141.199C143.759 37.3575 146.275 35.5044 146.275 32.551C146.275 29.5986 143.759 27.7456 141.199 27.7456ZM111.02 41.4659C109.424 41.4659 108.088 40.129 108.088 38.2945C108.088 36.439 109.424 35.0836 111.02 35.0836C112.594 35.0836 113.831 36.439 113.831 38.2945C113.831 40.129 112.594 41.4659 111.02 41.4659ZM113.671 34.1861H113.592C113.073 33.5684 112.075 33.0088 110.82 33.0088C108.187 33.0088 105.775 35.3236 105.775 38.2945C105.775 41.2456 108.187 43.5393 110.82 43.5393C112.075 43.5393 113.073 42.981 113.592 42.3435H113.671V43.0999C113.671 45.1152 112.594 46.1908 110.86 46.1908C109.444 46.1908 108.566 45.1745 108.207 44.3167L106.193 45.1547C106.771 46.5497 108.306 48.2654 110.86 48.2654C113.572 48.2654 115.866 46.6699 115.866 42.7818V33.3282H113.671V34.1861ZM117.462 43.22H119.774V27.7456H117.462V43.22ZM123.183 38.1151C123.124 36.08 124.759 35.0439 125.937 35.0439C126.854 35.0439 127.631 35.5032 127.891 36.1605L123.183 38.1151ZM130.363 36.3597C129.924 35.1838 128.588 33.0088 125.856 33.0088C123.144 33.0088 120.89 35.1442 120.89 38.2747C120.89 41.2258 123.124 43.5393 126.115 43.5393C128.528 43.5393 129.924 42.0638 130.503 41.2059L128.708 40.009C128.109 40.8865 127.292 41.4659 126.115 41.4659C124.939 41.4659 124.101 40.9262 123.564 39.8691L130.602 36.9576L130.363 36.3597ZM74.2781 34.6256V36.8587H79.6231C79.4634 38.1151 79.0438 39.0324 78.4063 39.6699C77.6276 40.4484 76.4108 41.3062 74.2781 41.3062C70.9865 41.3062 68.4144 38.6536 68.4144 35.3633C68.4144 32.0732 70.9865 29.4204 74.2781 29.4204C76.0532 29.4204 77.3492 30.1185 78.3061 31.0159L79.8818 29.4402C78.545 28.1639 76.771 27.186 74.2781 27.186C69.771 27.186 65.9819 30.8564 65.9819 35.3633C65.9819 39.8691 69.771 43.5393 74.2781 43.5393C76.7104 43.5393 78.545 42.741 79.9808 41.2456C81.4564 39.7701 81.9156 37.6967 81.9156 36.0207C81.9156 35.5032 81.876 35.0242 81.7955 34.6256H74.2781ZM87.992 41.4659C86.3976 41.4659 85.0211 40.1488 85.0211 38.2747C85.0211 36.3796 86.3976 35.0836 87.992 35.0836C89.5876 35.0836 90.9641 36.3796 90.9641 38.2747C90.9641 40.1488 89.5876 41.4659 87.992 41.4659ZM87.9919 33.0088C85.0805 33.0088 82.7074 35.2234 82.7074 38.2747C82.7074 41.3062 85.0805 43.5393 87.9919 43.5393C90.9046 43.5393 93.2775 41.3062 93.2775 38.2747C93.2775 35.2234 90.9046 33.0088 87.9919 33.0088ZM99.5208 41.4659C97.9253 41.4659 96.5488 40.1488 96.5488 38.2747C96.5488 36.3796 97.9253 35.0836 99.5208 35.0836C101.116 35.0836 102.492 36.3796 102.492 38.2747C102.492 40.1488 101.116 41.4659 99.5208 41.4659ZM99.5194 33.0088C96.608 33.0088 94.235 35.2234 94.235 38.2747C94.235 41.3062 96.608 43.5393 99.5194 43.5393C102.431 43.5393 104.804 41.3062 104.804 38.2747C104.804 35.2234 102.431 33.0088 99.5194 33.0088Z" fill="#EFF2F5"/>
<path fill-rule="evenodd" clip-rule="evenodd" d="M67.3016 21.2635H68.6187C69.4765 21.2635 70.1561 21.0184 70.6575 20.527C71.1588 20.0355 71.4088 19.3473 71.4088 18.4622C71.4088 17.5845 71.1588 16.8988 70.6575 16.4036C70.1561 15.9098 69.4765 15.6622 68.6187 15.6622H67.3016V21.2635ZM66.3469 22.1756V14.7485H68.6184C69.7596 14.7485 70.6732 15.0927 71.3578 15.781C72.0423 16.4692 72.3839 17.3629 72.3839 18.4621C72.3839 19.5614 72.0423 20.4562 71.3578 21.1434C70.6732 21.8316 69.7596 22.1756 68.6184 22.1756H66.3469Z" fill="#EFF2F5"/>
<path fill-rule="evenodd" clip-rule="evenodd" d="M73.725 22.1766H74.6793V14.7495H73.725V22.1766Z" fill="#EFF2F5"/>
<path fill-rule="evenodd" clip-rule="evenodd" d="M78.4732 22.3423C77.9336 22.3423 77.4074 22.1666 76.8925 21.8138C76.3763 21.4609 76.0383 20.9671 75.8799 20.3309L76.7513 19.978C76.8554 20.3853 77.0671 20.7295 77.3889 21.0092C77.7119 21.2889 78.0721 21.4301 78.4732 21.4301C78.8879 21.4301 79.2432 21.3211 79.5365 21.1033C79.8311 20.8854 79.9772 20.5895 79.9772 20.2157C79.9772 19.8011 79.8311 19.4817 79.5365 19.2564C79.2432 19.0323 78.7777 18.8232 78.1414 18.6288C77.4842 18.422 76.9866 18.1535 76.6473 17.8255C76.3094 17.4962 76.1386 17.0764 76.1386 16.5653C76.1386 16.0318 76.3503 15.5687 76.7725 15.1751C77.1944 14.7816 77.7441 14.5835 78.4211 14.5835C79.0513 14.5835 79.5625 14.7406 79.9562 15.0551C80.351 15.3708 80.6073 15.7148 80.7236 16.0875L79.8535 16.4501C79.7903 16.2162 79.6368 15.9984 79.3917 15.7966C79.1467 15.5972 78.8297 15.497 78.4423 15.497C78.0758 15.497 77.7627 15.5985 77.5039 15.8027C77.244 16.007 77.1141 16.2608 77.1141 16.5653C77.1141 16.8414 77.2341 17.0753 77.4718 17.2646C77.7119 17.4553 78.0622 17.6261 78.5252 17.7784C78.8916 17.896 79.1974 18.0098 79.4437 18.1212C79.6888 18.2314 79.9388 18.3787 80.1901 18.5619C80.4427 18.7451 80.632 18.973 80.7608 19.2464C80.8883 19.5201 80.9526 19.8356 80.9526 20.1958C80.9526 20.5549 80.8784 20.8767 80.7299 21.1603C80.5812 21.4437 80.3833 21.669 80.1381 21.8348C79.8917 22.0007 79.6293 22.1269 79.3446 22.2137C79.0612 22.299 78.7703 22.3423 78.4732 22.3423Z" fill="#EFF2F5"/>
<path fill-rule="evenodd" clip-rule="evenodd" d="M83.2791 18.255H84.8772C85.2782 18.255 85.6001 18.1214 85.8414 17.8515C86.084 17.5817 86.2042 17.2847 86.2042 16.9591C86.2042 16.6336 86.084 16.3364 85.8414 16.0666C85.6001 15.7967 85.2782 15.6618 84.8772 15.6618H83.2791V18.255ZM83.2772 22.1766H82.3229V14.7495H84.8542C85.4831 14.7495 86.0289 14.9587 86.4882 15.3771C86.9487 15.7954 87.1777 16.3228 87.1777 16.9591C87.1777 17.5953 86.9487 18.1226 86.4882 18.5397C86.0289 18.9594 85.4831 19.1686 84.8542 19.1686H83.2772V22.1766Z" fill="#EFF2F5"/>
<path fill-rule="evenodd" clip-rule="evenodd" d="M89.7119 20.5946C90.2614 21.1516 90.9336 21.4289 91.7296 21.4289C92.5242 21.4289 93.1976 21.1516 93.7473 20.5946C94.2969 20.0376 94.5729 19.3271 94.5729 18.463C94.5729 17.599 94.2969 16.8873 93.7473 16.3314C93.1976 15.7743 92.5242 15.4959 91.7296 15.4959C90.9336 15.4959 90.2614 15.7743 89.7119 16.3314C89.1635 16.8873 88.8875 17.599 88.8875 18.463C88.8875 19.3271 89.1635 20.0376 89.7119 20.5946ZM94.4524 21.2159C93.722 21.9672 92.8146 22.3423 91.729 22.3423C90.6434 22.3423 89.7361 21.9672 89.0069 21.2159C88.2766 20.4658 87.9127 19.5486 87.9127 18.4628C87.9127 17.3773 88.2766 16.4588 89.0069 15.7086C89.7361 14.9586 90.6434 14.5835 91.729 14.5835C92.8085 14.5835 93.7134 14.9597 94.4474 15.7136C95.1801 16.4674 95.5466 17.3835 95.5466 18.4628C95.5466 19.5486 95.1814 20.4658 94.4524 21.2159Z" fill="#EFF2F5"/>
<path fill-rule="evenodd" clip-rule="evenodd" d="M96.887 22.1766V14.7495H98.0481L101.658 20.5265H101.7L101.658 19.0956V14.7495H102.613V22.1766H101.617L97.8413 16.1185H97.7992L97.8413 17.5508V22.1766H96.887Z" fill="#EFF2F5"/>
<path fill-rule="evenodd" clip-rule="evenodd" d="M105.209 14.1681H104.378L104.919 12.8398H105.957L105.209 14.1681ZM104.315 22.1757H105.269V14.7486H104.315V22.1757Z" fill="#EFF2F5"/>
<path fill-rule="evenodd" clip-rule="evenodd" d="M108.803 22.1766L106.19 14.7495H107.247L109.281 20.7766H109.322L111.439 14.7495H112.496L109.8 22.1766H108.803Z" fill="#EFF2F5"/>
<path fill-rule="evenodd" clip-rule="evenodd" d="M117.912 15.6618H114.531V18.0163H117.579V18.9087H114.531V21.2631H117.912V22.1766H113.576V14.7495H117.912V15.6618Z" fill="#EFF2F5"/>
<path fill-rule="evenodd" clip-rule="evenodd" d="M119.408 22.1766V14.7495H120.362V21.2643H123.577V22.1766H119.408Z" fill="#EFF2F5"/>
<path fill-rule="evenodd" clip-rule="evenodd" d="M127.27 22.1766V14.7495H128.431L132.041 20.5265H132.083L132.041 19.0956V14.7495H132.997V22.1766H132L128.225 16.1185H128.183L128.225 17.5508V22.1766H127.27Z" fill="#EFF2F5"/>
<path fill-rule="evenodd" clip-rule="evenodd" d="M136.027 20.5946C136.577 21.1516 137.249 21.4289 138.045 21.4289C138.84 21.4289 139.513 21.1516 140.063 20.5946C140.612 20.0376 140.888 19.3271 140.888 18.463C140.888 17.599 140.612 16.8873 140.063 16.3314C139.513 15.7743 138.84 15.4959 138.045 15.4959C137.249 15.4959 136.577 15.7743 136.027 16.3314C135.479 16.8873 135.203 17.599 135.203 18.463C135.203 19.3271 135.479 20.0376 136.027 20.5946ZM140.768 21.2159C140.038 21.9672 139.13 22.3423 138.045 22.3423C136.959 22.3423 136.052 21.9672 135.323 21.2159C134.592 20.4658 134.228 19.5486 134.228 18.4628C134.228 17.3773 134.592 16.4588 135.323 15.7086C136.052 14.9586 136.959 14.5835 138.045 14.5835C139.124 14.5835 140.029 14.9597 140.763 15.7136C141.496 16.4674 141.862 17.3835 141.862 18.4628C141.862 19.5486 141.497 20.4658 140.768 21.2159Z" fill="#EFF2F5"/>
<path fill-rule="evenodd" clip-rule="evenodd" d="M25.8463 15.2385V43.2224C25.8463 44.0174 26.0536 44.6304 26.4043 45.024L26.4936 45.115L41.4263 29.2305L26.5044 13.3574C26.0994 13.7447 25.8463 14.3781 25.8463 15.2385Z" fill="#EFF2F5"/>
<path fill-rule="evenodd" clip-rule="evenodd" d="M44.2712 29.2295L49.2503 34.5266L55.2589 30.894C56.0231 30.4323 56.451 29.8374 56.5221 29.2321V29.2283C56.451 28.6218 56.0231 28.0268 55.2589 27.5653L49.2492 23.9326L44.2712 29.2295Z" fill="#EFF2F5"/>
<path fill-rule="evenodd" clip-rule="evenodd" d="M28.0247 46.6986C28.5864 47.1526 29.4084 47.1731 30.3306 46.6152L47.7125 36.1084L42.8478 30.9307L28.0247 46.6986Z" fill="#EFF2F5"/>
<path fill-rule="evenodd" clip-rule="evenodd" d="M28.9673 11.4229C28.607 11.4305 28.2887 11.5472 28.0247 11.7588L42.849 27.5293L47.7149 22.3515L30.3317 11.8447C29.8701 11.5652 29.4338 11.4305 29.042 11.4229H28.9673Z" fill="#EFF2F5"/>
<path d="M176.975 1.50409H17.3458C16.764 1.50409 16.1891 1.50409 15.6088 1.50692C15.1229 1.50976 14.6411 1.51799 14.1506 1.52492C13.0851 1.53611 12.0222 1.61983 10.9709 1.77532C9.92114 1.93419 8.90427 2.23374 7.95466 2.66378C7.00621 3.09747 6.1396 3.66102 5.38623 4.33396C4.62892 5.00501 3.99765 5.78065 3.51667 6.63105C3.03438 7.47977 2.69995 8.38925 2.52494 9.32807C2.34828 10.2657 2.25321 11.2142 2.24059 12.1649C2.22586 12.5994 2.22432 13.0353 2.21655 13.4698V46.2228C2.22432 46.6628 2.22586 47.0891 2.24059 47.5292C2.25321 48.48 2.34828 49.4284 2.52494 50.3659C2.69947 51.3054 3.03391 52.2154 3.51667 53.0643C3.99742 53.912 4.6288 54.6845 5.38623 55.3518C6.13673 56.0277 7.00392 56.5917 7.95466 57.022C8.90425 57.4532 9.92103 57.7546 10.9709 57.9159C12.0223 58.0702 13.0852 58.1539 14.1506 58.1664C14.6411 58.176 15.1229 58.1815 15.6088 58.1815C16.1891 58.1844 16.764 58.1844 17.3458 58.1844H176.975C177.546 58.1844 178.124 58.1844 178.695 58.1815C179.178 58.1815 179.674 58.176 180.157 58.1664C181.222 58.1546 182.281 58.0709 183.331 57.9159C184.384 57.7535 185.405 57.4522 186.36 57.022C187.309 56.5914 188.175 56.0275 188.926 55.3518C189.681 54.682 190.313 53.91 190.801 53.0643C191.279 52.2147 191.611 51.3048 191.783 50.3659C191.96 49.4283 192.057 48.48 192.077 47.5292C192.083 47.0891 192.083 46.6628 192.083 46.2228C192.096 45.708 192.096 45.1961 192.096 44.6729V15.0169C192.096 14.4979 192.096 13.9832 192.083 13.4698C192.083 13.0353 192.083 12.5994 192.077 12.1649C192.057 11.214 191.96 10.2658 191.783 9.32802C191.61 8.38973 191.279 7.48032 190.801 6.631C189.821 4.92645 188.267 3.53896 186.36 2.66366C185.405 2.23466 184.384 1.9352 183.331 1.77519C182.283 1.61901 181.222 1.53528 180.157 1.52472C179.674 1.51781 179.178 1.5095 178.695 1.50674C178.124 1.50391 177.546 1.50409 176.975 1.50409Z" stroke="white" stroke-width="2.12551"/>
</g>
</g>
</g>
<defs>
<clipPath id="clip0_1385_1420">
<rect width="192.713" height="59.5144" fill="white" transform="translate(0.799561 0.0883789)"/>
</clipPath>
<clipPath id="clip1_1385_1420">
<rect width="192.713" height="59.5144" fill="white" transform="translate(0.799561 0.0878906)"/>
</clipPath>
<clipPath id="clip2_1385_1420">
<rect width="192.713" height="59.5144" fill="white" transform="translate(0.799561 0.0874023)"/>
</clipPath>
</defs>
</svg>
