<svg width="33" height="34" viewBox="0 0 33 34" fill="none" xmlns="http://www.w3.org/2000/svg">
<path d="M24.0521 20.1427C23.7226 19.9779 21.581 18.9895 21.2515 18.8248C20.922 18.66 20.5926 18.66 20.2631 18.9895C19.9336 19.319 19.2746 20.3074 18.9452 20.6369C18.7804 20.9664 18.4509 20.9664 18.1215 20.8016C16.9683 20.3074 15.8151 19.6485 14.8266 18.8248C14.0029 18.0011 13.1792 17.0126 12.5203 16.0242C12.3555 15.6947 12.5203 15.3652 12.685 15.2005C12.8498 15.0357 13.0145 14.7063 13.344 14.5415C13.5087 14.3768 13.6735 14.0473 13.6735 13.8825C13.8382 13.7178 13.8382 13.3883 13.6735 13.2236C13.5087 13.0588 12.685 11.082 12.3555 10.2583C12.1908 9.10507 11.8613 9.10507 11.5318 9.10507H10.7081C10.3787 9.10507 9.88443 9.43456 9.71969 9.5993C8.73125 10.5877 8.23703 11.7409 8.23703 13.0588C8.40177 14.5415 8.89599 16.0242 9.88443 17.3421C11.6966 19.9779 14.0029 22.1196 16.8035 23.4375C17.6272 23.767 18.2862 24.0965 19.1099 24.2612C19.9336 24.5907 20.7573 24.5907 21.7457 24.4259C22.8989 24.2612 23.8874 23.4375 24.5463 22.4491C24.8758 21.7901 24.8758 21.1311 24.7111 20.4722L24.0521 20.1427ZM28.1706 5.1513C21.7458 -1.27358 11.3671 -1.27358 4.94222 5.1513C-0.329481 10.423 -1.31792 18.4953 2.30637 24.9202L0 33.3219L8.73125 31.0156C11.2024 32.3335 13.8382 32.9924 16.4741 32.9924C25.5348 32.9924 32.7834 25.7439 32.7834 16.6831C32.9481 12.3999 31.136 8.28137 28.1706 5.1513ZM23.7226 28.215C21.581 29.5329 19.1099 30.3566 16.4741 30.3566C14.0029 30.3566 11.6966 29.6976 9.55495 28.5445L9.06073 28.215L3.95377 29.5329L5.2717 24.5907L4.94222 24.0965C0.988443 17.5068 2.96533 9.26981 9.39021 5.1513C15.8151 1.03279 24.0521 3.17442 28.0059 9.43456C31.9597 15.8594 30.1475 24.2612 23.7226 28.215Z" fill="#2DB742"/>
</svg>
